<svg xmlns:dc="http://purl.org/dc/elements/1.1/" xmlns:cc="http://creativecommons.org/ns#" xmlns:rdf="http://www.w3.org/1999/02/22-rdf-syntax-ns#" xmlns:svg="http://www.w3.org/2000/svg" xmlns="http://www.w3.org/2000/svg" xml:space="preserve" id="svg2" version="1.1" viewBox="51 243.36 697.58 488.47"><metadata id="metadata8"><rdf:RDF><cc:Work rdf:about=""><dc:format>image/svg+xml</dc:format><dc:type rdf:resource="http://purl.org/dc/dcmitype/StillImage"/></cc:Work></rdf:RDF></metadata><defs id="defs6"><clipPath id="clipPath42" clipPathUnits="userSpaceOnUse"><path style="clip-rule:evenodd" id="path40" d="M 51,243.36 H 561.24 V 548.4 H 51 Z"/></clipPath><clipPath id="clipPath54" clipPathUnits="userSpaceOnUse"><path style="clip-rule:evenodd" id="path52" d="M 51,243.36 H 561.24 V 548.4 H 51 Z"/></clipPath><clipPath id="clipPath66" clipPathUnits="userSpaceOnUse"><path style="clip-rule:evenodd" id="path64" d="M 51,243.36 H 561.24 V 548.4 H 51 Z"/></clipPath><clipPath id="clipPath78" clipPathUnits="userSpaceOnUse"><path style="clip-rule:evenodd" id="path76" d="M 51,243.36 H 561.24 V 548.4 H 51 Z"/></clipPath><clipPath id="clipPath90" clipPathUnits="userSpaceOnUse"><path style="clip-rule:evenodd" id="path88" d="M 51,243.36 H 561.24 V 548.4 H 51 Z"/></clipPath><clipPath id="clipPath102" clipPathUnits="userSpaceOnUse"><path style="clip-rule:evenodd" id="path100" d="M 51,243.36 H 561.24 V 548.4 H 51 Z"/></clipPath><clipPath id="clipPath114" clipPathUnits="userSpaceOnUse"><path style="clip-rule:evenodd" id="path112" d="M 51,243.36 H 561.24 V 548.4 H 51 Z"/></clipPath><clipPath id="clipPath126" clipPathUnits="userSpaceOnUse"><path style="clip-rule:evenodd" id="path124" d="M 51,243.36 H 561.24 V 548.4 H 51 Z"/></clipPath><clipPath id="clipPath138" clipPathUnits="userSpaceOnUse"><path style="clip-rule:evenodd" id="path136" d="M 51,243.36 H 561.24 V 548.4 H 51 Z"/></clipPath><clipPath id="clipPath150" clipPathUnits="userSpaceOnUse"><path style="clip-rule:evenodd" id="path148" d="M 51,243.36 H 561.24 V 548.4 H 51 Z"/></clipPath><clipPath id="clipPath162" clipPathUnits="userSpaceOnUse"><path style="clip-rule:evenodd" id="path160" d="M 51,243.36 H 561.24 V 548.4 H 51 Z"/></clipPath><clipPath id="clipPath174" clipPathUnits="userSpaceOnUse"><path style="clip-rule:evenodd" id="path172" d="M 51,243.36 H 561.24 V 548.4 H 51 Z"/></clipPath><clipPath id="clipPath186" clipPathUnits="userSpaceOnUse"><path style="clip-rule:evenodd" id="path184" d="M 51,243.36 H 561.24 V 548.4 H 51 Z"/></clipPath><clipPath id="clipPath198" clipPathUnits="userSpaceOnUse"><path style="clip-rule:evenodd" id="path196" d="M 51,243.36 H 561.24 V 548.4 H 51 Z"/></clipPath><clipPath id="clipPath210" clipPathUnits="userSpaceOnUse"><path style="clip-rule:evenodd" id="path208" d="M 51,243.36 H 561.24 V 548.4 H 51 Z"/></clipPath><clipPath id="clipPath222" clipPathUnits="userSpaceOnUse"><path style="clip-rule:evenodd" id="path220" d="M 51,243.36 H 561.24 V 548.4 H 51 Z"/></clipPath><clipPath id="clipPath238" clipPathUnits="userSpaceOnUse"><path style="clip-rule:evenodd" id="path236" d="M 51,243.36 H 561.24 V 548.4 H 51 Z"/></clipPath><clipPath id="clipPath254" clipPathUnits="userSpaceOnUse"><path style="clip-rule:evenodd" id="path252" d="M 51,243.36 H 561.24 V 548.4 H 51 Z"/></clipPath><clipPath id="clipPath270" clipPathUnits="userSpaceOnUse"><path style="clip-rule:evenodd" id="path268" d="M 51,243.36 H 561.24 V 548.4 H 51 Z"/></clipPath><clipPath id="clipPath286" clipPathUnits="userSpaceOnUse"><path style="clip-rule:evenodd" id="path284" d="M 51,243.36 H 561.24 V 548.4 H 51 Z"/></clipPath><clipPath id="clipPath302" clipPathUnits="userSpaceOnUse"><path style="clip-rule:evenodd" id="path300" d="M 51,243.36 H 561.24 V 548.4 H 51 Z"/></clipPath></defs><g transform="matrix(1.3333333,0,0,-1.3333333,0,1056)" id="g10"><path id="path12" style="fill:#ffffff;fill-opacity:1;fill-rule:evenodd;stroke:none" d="m 50.973,243.43 h 510.16 V 548.51 H 50.973 Z"/><path id="path14" style="fill:#4472c4;fill-opacity:1;fill-rule:evenodd;stroke:none" d="m 306.05,493.65 c 21.5,0 42.3,-7.59 58.73,-21.45 l -58.73,-69.65 z"/><path id="path16" style="fill:none;stroke:#ffffff;stroke-width:1.68840003;stroke-linecap:butt;stroke-linejoin:round;stroke-miterlimit:10;stroke-dasharray:none;stroke-opacity:1" d="m 306.05,493.65 c 21.5,0 42.3,-7.59 58.73,-21.45 l -58.73,-69.65 z"/><path id="path18" style="fill:#ed7d31;fill-opacity:1;fill-rule:evenodd;stroke:none" d="m 364.78,472.2 c 0.28,-0.24 0.57,-0.48 0.86,-0.73 l -59.59,-68.92 z"/><path id="path20" style="fill:none;stroke:#ffffff;stroke-width:1.68840003;stroke-linecap:butt;stroke-linejoin:round;stroke-miterlimit:10;stroke-dasharray:none;stroke-opacity:1" d="m 364.78,472.2 c 0.28,-0.24 0.57,-0.48 0.86,-0.73 l -59.59,-68.92 z"/><path id="path22" style="fill:#a5a5a5;fill-opacity:1;fill-rule:evenodd;stroke:none" d="m 365.64,471.47 c 1.01,-0.88 2,-1.77 2.97,-2.69 l -62.56,-66.23 z"/><path id="path24" style="fill:none;stroke:#ffffff;stroke-width:1.68840003;stroke-linecap:butt;stroke-linejoin:round;stroke-miterlimit:10;stroke-dasharray:none;stroke-opacity:1" d="m 365.64,471.47 c 1.01,-0.88 2,-1.77 2.97,-2.69 l -62.56,-66.23 z"/><path id="path26" style="fill:#ffc000;fill-opacity:1;fill-rule:evenodd;stroke:none" d="m 368.61,468.78 c 34.04,-32.15 38.16,-84.87 9.54,-121.93 l -72.1,55.7 z"/><path id="path28" style="fill:none;stroke:#ffffff;stroke-width:1.68840003;stroke-linecap:butt;stroke-linejoin:round;stroke-miterlimit:10;stroke-dasharray:none;stroke-opacity:1" d="m 368.61,468.78 c 34.04,-32.15 38.16,-84.87 9.54,-121.93 l -72.1,55.7 z"/><path id="path30" style="fill:#5b9bd5;fill-opacity:1;fill-rule:evenodd;stroke:none" d="m 378.15,346.85 c -30.77,-39.81 -87.98,-47.15 -127.8,-16.39 -39.81,30.76 -47.15,87.98 -16.39,127.79 17.25,22.33 43.88,35.4 72.09,35.4 v -91.1 z"/><path id="path32" style="fill:none;stroke:#ffffff;stroke-width:1.68840003;stroke-linecap:butt;stroke-linejoin:round;stroke-miterlimit:10;stroke-dasharray:none;stroke-opacity:1" d="m 378.15,346.85 c -30.77,-39.81 -87.98,-47.15 -127.8,-16.39 -39.81,30.76 -47.15,87.98 -16.39,127.79 17.25,22.33 43.88,35.4 72.09,35.4 v -91.1 z"/><path id="path34" style="fill:none;stroke:#a6a6a6;stroke-width:0.81173998;stroke-linecap:butt;stroke-linejoin:round;stroke-miterlimit:10;stroke-dasharray:none;stroke-opacity:1" d="m 367.14,470.14 28.27,0.23 h 4.93"/><g id="g36"><g clip-path="url(#clipPath42)" id="g38"><text id="text46" style="font-variant:normal;font-weight:normal;font-size:9.74400043px;font-family:Calibri;-inkscape-font-specification:Calibri;writing-mode:lr-tb;fill:#404040;fill-opacity:1;fill-rule:nonzero;stroke:none" transform="matrix(1,0,0,-1,309.94,466.99)"><tspan id="tspan44" y="0" x="0 4.9439979 9.8879957 14.831994">1129</tspan></text>
</g></g><g id="g48"><g clip-path="url(#clipPath54)" id="g50"><text id="text58" style="font-variant:normal;font-weight:normal;font-size:9.74400043px;font-family:Calibri;-inkscape-font-specification:Calibri;writing-mode:lr-tb;fill:#404040;fill-opacity:1;fill-rule:nonzero;stroke:none" transform="matrix(1,0,0,-1,329.69,466.99)"><tspan id="tspan56" y="0" x="0 2.5919919">; </tspan></text>
</g></g><g id="g60"><g clip-path="url(#clipPath66)" id="g62"><text id="text70" style="font-variant:normal;font-weight:normal;font-size:9.74400043px;font-family:Calibri;-inkscape-font-specification:Calibri;writing-mode:lr-tb;fill:#404040;fill-opacity:1;fill-rule:nonzero;stroke:none" transform="matrix(1,0,0,-1,334.49,466.99)"><tspan id="tspan68" y="0" x="0 4.9439979 9.8879957">11%</tspan></text>
</g></g><g id="g72"><g clip-path="url(#clipPath78)" id="g74"><text id="text82" style="font-variant:normal;font-weight:normal;font-size:9.74400043px;font-family:Calibri;-inkscape-font-specification:Calibri;writing-mode:lr-tb;fill:#404040;fill-opacity:1;fill-rule:nonzero;stroke:none" transform="matrix(1,0,0,-1,366.77,476.74)"><tspan id="tspan80" y="0" x="0 4.9439979">20</tspan></text>
</g></g><g id="g84"><g clip-path="url(#clipPath90)" id="g86"><text id="text94" style="font-variant:normal;font-weight:normal;font-size:9.74400043px;font-family:Calibri;-inkscape-font-specification:Calibri;writing-mode:lr-tb;fill:#404040;fill-opacity:1;fill-rule:nonzero;stroke:none" transform="matrix(1,0,0,-1,376.66,476.74)"><tspan id="tspan92" y="0" x="0 2.5919919">; </tspan></text>
</g></g><g id="g96"><g clip-path="url(#clipPath102)" id="g98"><text id="text106" style="font-variant:normal;font-weight:normal;font-size:9.74400043px;font-family:Calibri;-inkscape-font-specification:Calibri;writing-mode:lr-tb;fill:#404040;fill-opacity:1;fill-rule:nonzero;stroke:none" transform="matrix(1,0,0,-1,381.46,476.74)"><tspan id="tspan104" y="0" x="0 4.9439979">0%</tspan></text>
</g></g><g id="g108"><g clip-path="url(#clipPath114)" id="g110"><text id="text118" style="font-variant:normal;font-weight:normal;font-size:9.74400043px;font-family:Calibri;-inkscape-font-specification:Calibri;writing-mode:lr-tb;fill:#404040;fill-opacity:1;fill-rule:nonzero;stroke:none" transform="matrix(1,0,0,-1,401.69,470.26)"><tspan id="tspan116" y="0" x="0 4.9439979">71</tspan></text>
</g></g><g id="g120"><g clip-path="url(#clipPath126)" id="g122"><text id="text130" style="font-variant:normal;font-weight:normal;font-size:9.74400043px;font-family:Calibri;-inkscape-font-specification:Calibri;writing-mode:lr-tb;fill:#404040;fill-opacity:1;fill-rule:nonzero;stroke:none" transform="matrix(1,0,0,-1,411.55,470.26)"><tspan id="tspan128" y="0" x="0 2.6160021">; </tspan></text>
</g></g><g id="g132"><g clip-path="url(#clipPath138)" id="g134"><text id="text142" style="font-variant:normal;font-weight:normal;font-size:9.74400043px;font-family:Calibri;-inkscape-font-specification:Calibri;writing-mode:lr-tb;fill:#404040;fill-opacity:1;fill-rule:nonzero;stroke:none" transform="matrix(1,0,0,-1,416.38,470.26)"><tspan id="tspan140" y="0" x="0 4.9200082">1%</tspan></text>
</g></g><g id="g144"><g clip-path="url(#clipPath150)" id="g146"><text id="text154" style="font-variant:normal;font-weight:normal;font-size:9.74400043px;font-family:Calibri;-inkscape-font-specification:Calibri;writing-mode:lr-tb;fill:#404040;fill-opacity:1;fill-rule:nonzero;stroke:none" transform="matrix(1,0,0,-1,350.54,403.68)"><tspan id="tspan152" y="0" x="0 4.9200082 9.8400164 14.760024">2372</tspan></text>
</g></g><g id="g156"><g clip-path="url(#clipPath162)" id="g158"><text id="text166" style="font-variant:normal;font-weight:normal;font-size:9.74400043px;font-family:Calibri;-inkscape-font-specification:Calibri;writing-mode:lr-tb;fill:#404040;fill-opacity:1;fill-rule:nonzero;stroke:none" transform="matrix(1,0,0,-1,370.27,403.68)"><tspan id="tspan164" y="0" x="0 2.6160021">; </tspan></text>
</g></g><g id="g168"><g clip-path="url(#clipPath174)" id="g170"><text id="text178" style="font-variant:normal;font-weight:normal;font-size:9.74400043px;font-family:Calibri;-inkscape-font-specification:Calibri;writing-mode:lr-tb;fill:#404040;fill-opacity:1;fill-rule:nonzero;stroke:none" transform="matrix(1,0,0,-1,375.1,403.68)"><tspan id="tspan176" y="0" x="0 4.9200082 9.8400164">23%</tspan></text>
</g></g><g id="g180"><g clip-path="url(#clipPath186)" id="g182"><text id="text190" style="font-variant:normal;font-weight:normal;font-size:9.74400043px;font-family:Calibri;-inkscape-font-specification:Calibri;writing-mode:lr-tb;fill:#404040;fill-opacity:1;fill-rule:nonzero;stroke:none" transform="matrix(1,0,0,-1,224.69,374.45)"><tspan id="tspan188" y="0" x="0 4.9439979 9.8879957 14.831994">6535</tspan></text>
</g></g><g id="g192"><g clip-path="url(#clipPath198)" id="g194"><text id="text202" style="font-variant:normal;font-weight:normal;font-size:9.74400043px;font-family:Calibri;-inkscape-font-specification:Calibri;writing-mode:lr-tb;fill:#404040;fill-opacity:1;fill-rule:nonzero;stroke:none" transform="matrix(1,0,0,-1,244.44,374.45)"><tspan id="tspan200" y="0" x="0 2.5919919">; </tspan></text>
</g></g><g id="g204"><g clip-path="url(#clipPath210)" id="g206"><text id="text214" style="font-variant:normal;font-weight:normal;font-size:9.74400043px;font-family:Calibri;-inkscape-font-specification:Calibri;writing-mode:lr-tb;fill:#404040;fill-opacity:1;fill-rule:nonzero;stroke:none" transform="matrix(1,0,0,-1,249.24,374.45)"><tspan id="tspan212" y="0" x="0 4.9439979 9.8879957">65%</tspan></text>
</g></g><g id="g216"><g clip-path="url(#clipPath222)" id="g218"><text id="text226" style="font-variant:normal;font-weight:normal;font-size:15.19200039px;font-family:Calibri;-inkscape-font-specification:Calibri;writing-mode:lr-tb;fill:#595959;fill-opacity:1;fill-rule:nonzero;stroke:none" transform="matrix(1,0,0,-1,183.19,525.94)"><tspan id="tspan224" y="0" x="0 9.8444157 17.759447 29.837088 37.752121 45.317738 50.619743 54.007561 62.059319 66.723267 70.111076 77.388046 82.690056 87.779373 91.273537 97.638985 101.13314 108.69876 114.63883 117.88992 125.80495 133.37057 138.67258 142.15155 150.06657 158.11833 170.19597 177.47295 180.9671 188.89732 192.28514 198.52905 205.68449 210.62189 218.1875 225.16063 233.21239 238.65112">Number of articles per domain category</tspan></text>
</g></g><path id="path228" style="fill:#4472c4;fill-opacity:1;fill-rule:evenodd;stroke:none" d="m 81.966,273.02 h 5.3502 v 5.3502 H 81.966 Z"/><path id="path230" style="fill:none;stroke:#ffffff;stroke-width:1.62349999;stroke-linecap:butt;stroke-linejoin:round;stroke-miterlimit:10;stroke-dasharray:none;stroke-opacity:1" d="m 81.966,273.02 h 5.3502 v 5.3502 H 81.966 Z"/><g id="g232"><g clip-path="url(#clipPath238)" id="g234"><text id="text242" style="font-variant:normal;font-weight:normal;font-size:9.74400043px;font-family:Calibri;-inkscape-font-specification:Calibri;writing-mode:lr-tb;fill:#595959;fill-opacity:1;fill-rule:nonzero;stroke:none" transform="matrix(1,0,0,-1,89.592,272.88)"><tspan id="tspan240" y="0" x="0 6.2361598 10.903536 14.167776 19.351583 22.752239 27.419617 29.621759 31.823904 36.384094 40.418114 42.756672 47.560463 52.627342 56.768543 61.572334">Natural Sciences</tspan></text>
</g></g><path id="path244" style="fill:#ed7d31;fill-opacity:1;fill-rule:evenodd;stroke:none" d="m 233.68,273.02 h 5.3502 v 5.3502 H 233.68 Z"/><path id="path246" style="fill:none;stroke:#ffffff;stroke-width:1.62349999;stroke-linecap:butt;stroke-linejoin:round;stroke-miterlimit:10;stroke-dasharray:none;stroke-opacity:1" d="m 233.68,273.02 h 5.3502 v 5.3502 H 233.68 Z"/><g id="g248"><g clip-path="url(#clipPath254)" id="g250"><text id="text258" style="font-variant:normal;font-weight:normal;font-size:9.74400043px;font-family:Calibri;-inkscape-font-specification:Calibri;writing-mode:lr-tb;fill:#595959;fill-opacity:1;fill-rule:nonzero;stroke:none" transform="matrix(1,0,0,-1,241.34,272.88)"><tspan id="tspan256" y="0" x="0 4.7940478 9.8609276 14.401632 16.720703 21.787584 26.591375 31.521839 34.922497 37.114895 42.181774 46.849152 49.051296 53.718674 58.805038 63.871922 66.074066 69.455231 74.259026 78.400223 83.467102 88.533981 93.727539 95.939423 101.13297 105.67368">Engineering and technology</tspan></text>
</g></g><path id="path260" style="fill:#a5a5a5;fill-opacity:1;fill-rule:evenodd;stroke:none" d="m 385.4,273.02 h 5.3502 v 5.3502 H 385.4 Z"/><path id="path262" style="fill:none;stroke:#ffffff;stroke-width:1.62349999;stroke-linecap:butt;stroke-linejoin:round;stroke-miterlimit:10;stroke-dasharray:none;stroke-opacity:1" d="m 385.4,273.02 h 5.3502 v 5.3502 H 385.4 Z"/><g id="g264"><g clip-path="url(#clipPath270)" id="g266"><text id="text274" style="font-variant:normal;font-weight:normal;font-size:9.74400043px;font-family:Calibri;-inkscape-font-specification:Calibri;writing-mode:lr-tb;fill:#595959;fill-opacity:1;fill-rule:nonzero;stroke:none" transform="matrix(1,0,0,-1,393.1,272.88)"><tspan id="tspan272" y="0" x="0 5.5930562 10.260432 13.661088 15.853488 19.994688 25.061567 27.273457 30.64488 35.711761 39.112415 43.779793 45.981937 48.184078 52.851456 58.04501 63.111889 65.314034 69.718323 74.531853 77.796097 82.707069 86.107727 88.300125 93.367004 98.034386 101.43504 105.84908 108.05122 111.92933 115.96334 118.28242 123.0862 128.15309 132.29428 137.09808">Agricultural and veterinary sciences</tspan></text>
</g></g><path id="path276" style="fill:#ffc000;fill-opacity:1;fill-rule:evenodd;stroke:none" d="m 81.966,254.76 h 5.3502 v 5.3502 H 81.966 Z"/><path id="path278" style="fill:none;stroke:#ffffff;stroke-width:1.62349999;stroke-linecap:butt;stroke-linejoin:round;stroke-miterlimit:10;stroke-dasharray:none;stroke-opacity:1" d="m 81.966,254.76 h 5.3502 v 5.3502 H 81.966 Z"/><g id="g280"><g clip-path="url(#clipPath286)" id="g282"><text id="text290" style="font-variant:normal;font-weight:normal;font-size:9.74400043px;font-family:Calibri;-inkscape-font-specification:Calibri;writing-mode:lr-tb;fill:#595959;fill-opacity:1;fill-rule:nonzero;stroke:none" transform="matrix(1,0,0,-1,89.592,254.62)"><tspan id="tspan288" y="0" x="0 4.414032 9.607584 13.748784 15.960672 20.628048 22.869167 25.071312 28.822752 32.963951 35.175838 40.106304 45.173183 49.314384 54.118176">Social sciences</tspan></text>
</g></g><path id="path292" style="fill:#5b9bd5;fill-opacity:1;fill-rule:evenodd;stroke:none" d="m 233.68,254.76 h 5.3502 v 5.3502 H 233.68 Z"/><path id="path294" style="fill:none;stroke:#ffffff;stroke-width:1.62349999;stroke-linecap:butt;stroke-linejoin:round;stroke-miterlimit:10;stroke-dasharray:none;stroke-opacity:1" d="m 233.68,254.76 h 5.3502 v 5.3502 H 233.68 Z"/><g id="g296"><g clip-path="url(#clipPath302)" id="g298"><text id="text306" style="font-variant:normal;font-weight:normal;font-size:9.74400043px;font-family:Calibri;-inkscape-font-specification:Calibri;writing-mode:lr-tb;fill:#595959;fill-opacity:1;fill-rule:nonzero;stroke:none" transform="matrix(1,0,0,-1,241.34,254.62)"><tspan id="tspan304" y="0" x="0 6.0705118 11.186112 18.971567 23.638945 28.705824 31.024897 34.289135 36.47179 41.275585 45.153694 47.355839 51.896545 57.090096 62.156975 64.359123 67.62336 72.807167 77.610962 79.813103 84.480476 87.881134 91.145378">Humanities and the arts</tspan></text>
</g></g><path id="path308" style="fill:none;stroke:#d9d9d9;stroke-width:0.81173998;stroke-linecap:butt;stroke-linejoin:round;stroke-miterlimit:10;stroke-dasharray:none;stroke-opacity:1" d="m 50.973,243.43 h 510.16 V 548.51 H 50.973 Z"/></g></svg>