<svg xmlns="http://www.w3.org/2000/svg" xmlns:xlink="http://www.w3.org/1999/xlink" version="1.1" viewBox="50.6 247.44 510.97 297.2">
<defs>
<clipPath id="clip_0">
<path transform="matrix(1,0,0,-1,0,792)" d="M51.12 247.68H561.24V544.19998H51.12Z" fill-rule="evenodd"/>
</clipPath>
<clipPath id="clip_1">
<path transform="matrix(1,0,0,-1,0,792)" d="M51.12 247.68H561.24V544.19998H51.12Z" fill-rule="evenodd"/>
</clipPath>
<clipPath id="clip_2">
<path transform="matrix(1,0,0,-1,0,792)" d="M51.12 247.68H561.24V544.19998H51.12Z" fill-rule="evenodd"/>
</clipPath>
<clipPath id="clip_3">
<path transform="matrix(1,0,0,-1,0,792)" d="M51.12 247.68H561.24V544.19998H51.12Z" fill-rule="evenodd"/>
</clipPath>
<clipPath id="clip_4">
<path transform="matrix(1,0,0,-1,0,792)" d="M51.12 247.68H561.24V544.19998H51.12Z" fill-rule="evenodd"/>
</clipPath>
<clipPath id="clip_5">
<path transform="matrix(1,0,0,-1,0,792)" d="M51.12 247.68H561.24V544.19998H51.12Z" fill-rule="evenodd"/>
</clipPath>
<clipPath id="clip_6">
<path transform="matrix(1,0,0,-1,0,792)" d="M51.12 247.68H561.24V544.19998H51.12Z" fill-rule="evenodd"/>
</clipPath>
<clipPath id="clip_7">
<path transform="matrix(1,0,0,-1,0,792)" d="M51.12 247.68H561.24V544.19998H51.12Z" fill-rule="evenodd"/>
</clipPath>
<clipPath id="clip_8">
<path transform="matrix(1,0,0,-1,0,792)" d="M51.12 247.68H561.24V544.19998H51.12Z" fill-rule="evenodd"/>
</clipPath>
<clipPath id="clip_9">
<path transform="matrix(1,0,0,-1,0,792)" d="M51.12 247.68H561.24V544.19998H51.12Z" fill-rule="evenodd"/>
</clipPath>
<clipPath id="clip_10">
<path transform="matrix(1,0,0,-1,0,792)" d="M51.12 247.68H561.24V544.19998H51.12Z" fill-rule="evenodd"/>
</clipPath>
<clipPath id="clip_11">
<path transform="matrix(1,0,0,-1,0,792)" d="M51.12 247.68H561.24V544.19998H51.12Z" fill-rule="evenodd"/>
</clipPath>
<clipPath id="clip_12">
<path transform="matrix(1,0,0,-1,0,792)" d="M51.12 247.68H561.24V544.19998H51.12Z" fill-rule="evenodd"/>
</clipPath>
<clipPath id="clip_13">
<path transform="matrix(1,0,0,-1,0,792)" d="M51.12 247.68H561.24V544.19998H51.12Z" fill-rule="evenodd"/>
</clipPath>
<clipPath id="clip_14">
<path transform="matrix(1,0,0,-1,0,792)" d="M51.12 247.68H561.24V544.19998H51.12Z" fill-rule="evenodd"/>
</clipPath>
<clipPath id="clip_15">
<path transform="matrix(1,0,0,-1,0,792)" d="M51.12 247.68H561.24V544.19998H51.12Z" fill-rule="evenodd"/>
</clipPath>
<clipPath id="clip_16">
<path transform="matrix(1,0,0,-1,0,792)" d="M51.12 247.68H561.24V544.19998H51.12Z" fill-rule="evenodd"/>
</clipPath>
<clipPath id="clip_17">
<path transform="matrix(1,0,0,-1,0,792)" d="M51.12 247.68H561.24V544.19998H51.12Z" fill-rule="evenodd"/>
</clipPath>
<clipPath id="clip_18">
<path transform="matrix(1,0,0,-1,0,792)" d="M51.12 247.68H561.24V544.19998H51.12Z" fill-rule="evenodd"/>
</clipPath>
<clipPath id="clip_19">
<path transform="matrix(1,0,0,-1,0,792)" d="M51.12 247.68H561.24V544.19998H51.12Z" fill-rule="evenodd"/>
</clipPath>
<clipPath id="clip_20">
<path transform="matrix(1,0,0,-1,0,792)" d="M51.12 247.68H561.24V544.19998H51.12Z" fill-rule="evenodd"/>
</clipPath>
<clipPath id="clip_21">
<path transform="matrix(1,0,0,-1,0,792)" d="M51.12 247.68H561.24V544.19998H51.12Z" fill-rule="evenodd"/>
</clipPath>
<clipPath id="clip_22">
<path transform="matrix(1,0,0,-1,0,792)" d="M51.12 247.68H561.24V544.19998H51.12Z" fill-rule="evenodd"/>
</clipPath>
<clipPath id="clip_23">
<path transform="matrix(1,0,0,-1,0,792)" d="M51.12 247.68H561.24V544.19998H51.12Z" fill-rule="evenodd"/>
</clipPath>
<clipPath id="clip_24">
<path transform="matrix(1,0,0,-1,0,792)" d="M51.12 247.68H561.24V544.19998H51.12Z" fill-rule="evenodd"/>
</clipPath>
<clipPath id="clip_25">
<path transform="matrix(1,0,0,-1,0,792)" d="M51.12 247.68H561.24V544.19998H51.12Z" fill-rule="evenodd"/>
</clipPath>
<clipPath id="clip_26">
<path transform="matrix(1,0,0,-1,0,792)" d="M51.12 247.68H561.24V544.19998H51.12Z" fill-rule="evenodd"/>
</clipPath>
<clipPath id="clip_27">
<path transform="matrix(1,0,0,-1,0,792)" d="M51.12 247.68H561.24V544.19998H51.12Z" fill-rule="evenodd"/>
</clipPath>
<clipPath id="clip_28">
<path transform="matrix(1,0,0,-1,0,792)" d="M51.12 247.68H561.24V544.19998H51.12Z" fill-rule="evenodd"/>
</clipPath>
</defs>
<g>
<g id="layer_1" data-name="P">
<path transform="matrix(1,0,0,-1,0,792)" d="M51.022 247.79H561.14199V544.14H51.022Z" fill="#ffffff" fill-rule="evenodd"/>
<path transform="matrix(1,0,0,-1,0,792)" d="M306.08 489.44C324.24 489.44 341.82 483.02 355.72 471.32L306.08 412.37Z" fill="#ed7d31" fill-rule="evenodd"/>
<path transform="matrix(1,0,0,-1,0,792)" stroke-width="1.7628" stroke-linecap="butt" stroke-linejoin="round" fill="none" stroke="#ffffff" d="M306.08 489.44C324.24 489.44 341.82 483.02 355.72 471.32L306.08 412.37Z"/>
<path transform="matrix(1,0,0,-1,0,792)" d="M355.72 471.32C363.21 465.02 369.43 457.34 374.04 448.71L306.08 412.37Z" fill="#ffc000" fill-rule="evenodd"/>
<path transform="matrix(1,0,0,-1,0,792)" stroke-width="1.7628" stroke-linecap="butt" stroke-linejoin="round" fill="none" stroke="#ffffff" d="M355.72 471.32C363.21 465.02 369.43 457.34 374.04 448.71L306.08 412.37Z"/>
<path transform="matrix(1,0,0,-1,0,792)" d="M374.04 448.71C384.62 428.94 386.06 405.53 377.98 384.61L306.08 412.37Z" fill="#70ad47" fill-rule="evenodd"/>
<path transform="matrix(1,0,0,-1,0,792)" stroke-width="1.7628" stroke-linecap="butt" stroke-linejoin="round" fill="none" stroke="#ffffff" d="M374.04 448.71C384.62 428.94 386.06 405.53 377.98 384.61L306.08 412.37Z"/>
<path transform="matrix(1,0,0,-1,0,792)" d="M377.98 384.61C368.77 360.76 348.34 343.03 323.43 337.27L306.08 412.37Z" fill="#9e480e" fill-rule="evenodd"/>
<path transform="matrix(1,0,0,-1,0,792)" stroke-width="1.7628" stroke-linecap="butt" stroke-linejoin="round" fill="none" stroke="#ffffff" d="M377.98 384.61C368.77 360.76 348.34 343.03 323.43 337.27L306.08 412.37Z"/>
<path transform="matrix(1,0,0,-1,0,792)" d="M323.43 337.27C320.49 336.59 317.51 336.09 314.51 335.76L306.08 412.37Z" fill="#997300" fill-rule="evenodd"/>
<path transform="matrix(1,0,0,-1,0,792)" stroke-width="1.7628" stroke-linecap="butt" stroke-linejoin="round" fill="none" stroke="#ffffff" d="M323.43 337.27C320.49 336.59 317.51 336.09 314.51 335.76L306.08 412.37Z"/>
<path transform="matrix(1,0,0,-1,0,792)" d="M314.51 335.76C308.37 335.08 302.16 335.14 296.03 335.95L306.08 412.37Z" fill="#43682b" fill-rule="evenodd"/>
<path transform="matrix(1,0,0,-1,0,792)" stroke-width="1.7628" stroke-linecap="butt" stroke-linejoin="round" fill="none" stroke="#ffffff" d="M314.51 335.76C308.37 335.08 302.16 335.14 296.03 335.95L306.08 412.37Z"/>
<path transform="matrix(1,0,0,-1,0,792)" d="M296.03 335.95C253.83 341.5 224.12 380.21 229.67 422.41 234.71 460.77 267.4 489.44 306.08 489.44V412.37Z" fill="#f1975a" fill-rule="evenodd"/>
<path transform="matrix(1,0,0,-1,0,792)" stroke-width="1.7628" stroke-linecap="butt" stroke-linejoin="round" fill="none" stroke="#ffffff" d="M296.03 335.95C253.83 341.5 224.12 380.21 229.67 422.41 234.71 460.77 267.4 489.44 306.08 489.44V412.37Z"/>
<path transform="matrix(1,0,0,-1,0,792)" stroke-width=".84748" stroke-linecap="butt" stroke-linejoin="round" fill="none" stroke="#b5b5b5" d="M318.99 336.38 353.95 318.85H359.05"/>
</g>
<g id="layer_1" data-name="Span">
<g clip-path="url(#clip_0)">
<text fill="#515151" xml:space="preserve" transform="matrix(1 0 -0 1 0 792)" font-size="10.176" font-family="Calibri"><tspan y="-469.2" x="312.12 317.25605 322.3921 327.52815">5464</tspan></text>
</g>
</g>
<g id="layer_1" data-name="Span">
<g clip-path="url(#clip_1)">
<text fill="#515151" xml:space="preserve" transform="matrix(1 0 -0 1 0 792)" font-size="10.176" font-family="Calibri"><tspan y="-469.2" x="332.74 335.45198">; </tspan></text>
</g>
</g>
<g id="layer_1" data-name="Span">
<g clip-path="url(#clip_2)">
<text fill="#515151" xml:space="preserve" transform="matrix(1 0 -0 1 0 792)" font-size="10.152" font-family="Calibri"><tspan y="-456.72" x="314.95 320.11 325.26997">11%</tspan></text>
</g>
</g>
<g id="layer_1" data-name="Span">
<g clip-path="url(#clip_3)">
<text fill="#515151" xml:space="preserve" transform="matrix(1 0 -0 1 0 792)" font-size="10.176" font-family="Calibri"><tspan y="-464.98" x="367.1 372.26 377.42 382.58003">2966</tspan></text>
</g>
</g>
<g id="layer_1" data-name="Span">
<g clip-path="url(#clip_4)">
<text fill="#515151" xml:space="preserve" transform="matrix(1 0 -0 1 0 792)" font-size="10.176" font-family="Calibri"><tspan y="-464.98" x="387.72 390.43199">; </tspan></text>
</g>
</g>
<g id="layer_1" data-name="Span">
<g clip-path="url(#clip_5)">
<text fill="#515151" xml:space="preserve" transform="matrix(1 0 -0 1 0 792)" font-size="10.176" font-family="Calibri"><tspan y="-464.98" x="392.74 397.9">6%</tspan></text>
</g>
</g>
<g id="layer_1" data-name="Span">
<g clip-path="url(#clip_6)">
<text fill="#515151" xml:space="preserve" transform="matrix(1 0 -0 1 0 792)" font-size="10.176" font-family="Calibri"><tspan y="-410.71" x="334.9 340.06 345.22 350.38">6711</tspan></text>
</g>
</g>
<g id="layer_1" data-name="Span">
<g clip-path="url(#clip_7)">
<text fill="#515151" xml:space="preserve" transform="matrix(1 0 -0 1 0 792)" font-size="10.176" font-family="Calibri"><tspan y="-410.71" x="355.51 358.222">; </tspan></text>
</g>
</g>
<g id="layer_1" data-name="Span">
<g clip-path="url(#clip_8)">
<text fill="#515151" xml:space="preserve" transform="matrix(1 0 -0 1 0 792)" font-size="10.176" font-family="Calibri"><tspan y="-410.71" x="360.53 365.69 370.85">14%</tspan></text>
</g>
</g>
<g id="layer_1" data-name="Span">
<g clip-path="url(#clip_9)">
<text fill="#515151" xml:space="preserve" transform="matrix(1 0 -0 1 0 792)" font-size="10.152" font-family="Calibri"><tspan y="-373.42" x="321.34 326.49998 331.65995 336.81993">7615</tspan></text>
</g>
</g>
<g id="layer_1" data-name="Span">
<g clip-path="url(#clip_10)">
<text fill="#515151" xml:space="preserve" transform="matrix(1 0 -0 1 0 792)" font-size="10.152" font-family="Calibri"><tspan y="-373.42" x="341.95 344.66203">; </tspan></text>
</g>
</g>
<g id="layer_1" data-name="Span">
<g clip-path="url(#clip_11)">
<text fill="#515151" xml:space="preserve" transform="matrix(1 0 -0 1 0 792)" font-size="10.152" font-family="Calibri"><tspan y="-373.42" x="346.97 352.12998 357.28996">15%</tspan></text>
</g>
</g>
<g id="layer_1" data-name="Span">
<g clip-path="url(#clip_12)">
<text fill="#515151" xml:space="preserve" transform="matrix(1 0 -0 1 0 792)" font-size="10.176" font-family="Calibri"><tspan y="-319.18" x="360.34 365.5 370.66">917</tspan></text>
</g>
</g>
<g id="layer_1" data-name="Span">
<g clip-path="url(#clip_13)">
<text fill="#515151" xml:space="preserve" transform="matrix(1 0 -0 1 0 792)" font-size="10.176" font-family="Calibri"><tspan y="-319.18" x="375.79 378.50199">; </tspan></text>
</g>
</g>
<g id="layer_1" data-name="Span">
<g clip-path="url(#clip_14)">
<text fill="#515151" xml:space="preserve" transform="matrix(1 0 -0 1 0 792)" font-size="10.176" font-family="Calibri"><tspan y="-319.18" x="380.81 385.97">2%</tspan></text>
</g>
</g>
<g id="layer_1" data-name="Span">
<g clip-path="url(#clip_15)">
<text fill="#515151" xml:space="preserve" transform="matrix(1 0 -0 1 0 792)" font-size="10.176" font-family="Calibri"><tspan y="-322.56" x="283.2 288.33607 293.4721 298.60816">1877</tspan></text>
</g>
</g>
<g id="layer_1" data-name="Span">
<g clip-path="url(#clip_16)">
<text fill="#515151" xml:space="preserve" transform="matrix(1 0 -0 1 0 792)" font-size="10.176" font-family="Calibri"><tspan y="-322.56" x="303.82 306.53199">; </tspan></text>
</g>
</g>
<g id="layer_1" data-name="Span">
<g clip-path="url(#clip_17)">
<text fill="#515151" xml:space="preserve" transform="matrix(1 0 -0 1 0 792)" font-size="10.176" font-family="Calibri"><tspan y="-322.56" x="308.83 313.99">4%</tspan></text>
</g>
</g>
<g id="layer_1" data-name="Span">
<g clip-path="url(#clip_18)">
<text fill="#515151" xml:space="preserve" transform="matrix(1 0 -0 1 0 792)" font-size="10.176" font-family="Calibri"><tspan y="-416.66" x="234.02 239.18001 244.34001 249.50002 254.66002">23508</tspan></text>
</g>
</g>
<g id="layer_1" data-name="Span">
<g clip-path="url(#clip_19)">
<text fill="#515151" xml:space="preserve" transform="matrix(1 0 -0 1 0 792)" font-size="10.176" font-family="Calibri"><tspan y="-416.66" x="259.8 262.51197">; </tspan></text>
</g>
</g>
<g id="layer_1" data-name="Span">
<g clip-path="url(#clip_20)">
<text fill="#515151" xml:space="preserve" transform="matrix(1 0 -0 1 0 792)" font-size="10.176" font-family="Calibri"><tspan y="-416.66" x="264.82 269.98 275.14">48%</tspan></text>
</g>
</g>
<g id="layer_1" data-name="Span">
<g clip-path="url(#clip_21)">
<text fill="#6c6c6c" xml:space="preserve" transform="matrix(1 0 -0 1 0 792)" font-size="15.888" font-family="Calibri"><tspan y="-520.58" x="177.86 188.12364 196.46485 209.03226 217.3099 225.22214 230.76705 234.27829 242.65126 247.52887 251.056 258.66636 264.21128 269.53376 273.14033 279.7815 283.43574 291.34797 297.56019 300.92845 309.2061 317.11833 322.66325 326.25395 334.59513 342.9681 355.5673 363.17765 366.83189 375.07774 378.6049 385.10307 392.5704 397.734 405.64625 412.92295 421.29594 426.99974">Number of articles per domain category</tspan></text>
</g>
</g>
<g id="layer_1" data-name="P">
<path transform="matrix(1,0,0,-1,0,792)" d="M112.33 297.75H117.9158V303.33583H112.33Z" fill="#ed7d31" fill-rule="evenodd"/>
<path transform="matrix(1,0,0,-1,0,792)" stroke-width="1.695" stroke-linecap="butt" stroke-linejoin="round" fill="none" stroke="#ffffff" d="M112.33 297.75H117.9158V303.33583H112.33Z"/>
</g>
<g id="layer_1" data-name="P">
<g clip-path="url(#clip_22)">
<text fill="#6c6c6c" xml:space="preserve" transform="matrix(1 0 -0 1 0 792)" font-size="10.152" font-family="Calibri"><tspan y="-297.6" x="120.29 125.31524 130.37094 134.6957 138.21845 140.40113 145.28424 150.72573 156.05553 158.34989 162.431 167.7608 172.7759 177.92296 182.1462 187.58768 189.90235 195.23215 198.73459 204.17606 208.51096 213.56665 217.48532 221.55628 223.89124 229.19058">Text and speech processing</tspan></text>
</g>
</g>
<g id="layer_1" data-name="P">
<path transform="matrix(1,0,0,-1,0,792)" d="M243.92 297.75H249.5058V303.33583H243.92Z" fill="#ffc000" fill-rule="evenodd"/>
<path transform="matrix(1,0,0,-1,0,792)" stroke-width="1.695" stroke-linecap="butt" stroke-linejoin="round" fill="none" stroke="#ffffff" d="M243.92 297.75H249.5058V303.33583H243.92Z"/>
</g>
<g id="layer_1" data-name="P">
<g clip-path="url(#clip_23)">
<text fill="#6c6c6c" xml:space="preserve" transform="matrix(1 0 -0 1 0 792)" font-size="10.152" font-family="Calibri"><tspan y="-297.6" x="251.93 260.60997 266.0108 269.55387 274.82276 280.23377 285.5128 287.8173 293.2283 298.0099 300.28395 304.61888 309.4817 311.81666 314.111 318.97383 324.38484 329.24766 331.5826 336.18147 340.10014 342.40464">Morphological analysis</tspan></text>
</g>
</g>
<g id="layer_1" data-name="P">
<path transform="matrix(1,0,0,-1,0,792)" d="M375.52 297.75H381.10578V303.33583H375.52Z" fill="#70ad47" fill-rule="evenodd"/>
<path transform="matrix(1,0,0,-1,0,792)" stroke-width="1.695" stroke-linecap="butt" stroke-linejoin="round" fill="none" stroke="#ffffff" d="M375.52 297.75H381.10578V303.33583H375.52Z"/>
</g>
<g id="layer_1" data-name="P">
<g clip-path="url(#clip_24)">
<text fill="#6c6c6c" xml:space="preserve" transform="matrix(1 0 -0 1 0 792)" font-size="10.152" font-family="Calibri"><tspan y="-297.6" x="383.54 388.14903 392.74787 398.16905 401.56996 406.43278 410.7778 414.1787 416.46293 420.79783 423.09217 427.98545 433.2645 438.1476 440.45213 445.05097 449.0204 451.43656">Syntactic analysis</tspan></text>
</g>
</g>
<g id="layer_1" data-name="P">
<path transform="matrix(1,0,0,-1,0,792)" d="M112.33 278.68H117.9158V284.2658H112.33Z" fill="#9e480e" fill-rule="evenodd"/>
<path transform="matrix(1,0,0,-1,0,792)" stroke-width="1.695" stroke-linecap="butt" stroke-linejoin="round" fill="none" stroke="#ffffff" d="M112.33 278.68H117.9158V284.2658H112.33Z"/>
</g>
<g id="layer_1" data-name="P">
<g clip-path="url(#clip_25)">
<text fill="#6c6c6c" xml:space="preserve" transform="matrix(1 0 -0 1 0 792)" font-size="10.176" font-family="Calibri"><tspan y="-278.54" x="120.29 124.62498 129.69263 134.00725 136.4495 140.67253 145.54683 147.88732 150.21762 154.28803 159.35567 167.4863 172.3606 177.703 181.11197 183.53386 187.7569">Lexical semantics</tspan></text>
</g>
</g>
<g id="layer_1" data-name="P">
<path transform="matrix(1,0,0,-1,0,792)" d="M243.92 278.68H249.5058V284.2658H243.92Z" fill="#997300" fill-rule="evenodd"/>
<path transform="matrix(1,0,0,-1,0,792)" stroke-width="1.695" stroke-linecap="butt" stroke-linejoin="round" fill="none" stroke="#ffffff" d="M243.92 278.68H249.5058V284.2658H243.92Z"/>
</g>
<g id="layer_1" data-name="P">
<g clip-path="url(#clip_26)">
<text fill="#6c6c6c" xml:space="preserve" transform="matrix(1 0 -0 1 0 792)" font-size="10.176" font-family="Calibri"><tspan y="-278.54" x="251.93 257.45558 262.4927 264.79249 269.66679 273.07575 275.48747 280.7688 286.05015 290.92445 293.3565 295.65629 299.5944 304.61119 312.7418 317.6161 322.89744 326.41835 328.7181 333.05308">Relational semantics</tspan></text>
</g>
</g>
<g id="layer_1" data-name="P">
<path transform="matrix(1,0,0,-1,0,792)" d="M375.52 278.68H381.10578V284.2658H375.52Z" fill="#43682b" fill-rule="evenodd"/>
<path transform="matrix(1,0,0,-1,0,792)" stroke-width="1.695" stroke-linecap="butt" stroke-linejoin="round" fill="none" stroke="#ffffff" d="M375.52 278.68H381.10578V284.2658H375.52Z"/>
</g>
<g id="layer_1" data-name="P">
<g clip-path="url(#clip_27)">
<text fill="#6c6c6c" xml:space="preserve" transform="matrix(1 0 -0 1 0 792)" font-size="10.176" font-family="Calibri"><tspan y="-278.54" x="383.54 389.79826 392.08787 396.15827 400.36097 405.7746 411.05595 414.7193 418.6574">Discourse</tspan></text>
</g>
</g>
<g id="layer_1" data-name="P">
<path transform="matrix(1,0,0,-1,0,792)" d="M112.33 259.61H117.9158V265.1958H112.33Z" fill="#f1975a" fill-rule="evenodd"/>
<path transform="matrix(1,0,0,-1,0,792)" stroke-width="1.695" stroke-linecap="butt" stroke-linejoin="round" fill="none" stroke="#ffffff" d="M112.33 259.61H117.9158V265.1958H112.33Z"/>
</g>
<g id="layer_1" data-name="P">
<g clip-path="url(#clip_28)">
<text fill="#6c6c6c" xml:space="preserve" transform="matrix(1 0 -0 1 0 792)" font-size="10.176" font-family="Calibri"><tspan y="-259.46" x="120.29 126.66017 129.00066 133.74268 139.17667 144.24431 147.74486 150.85872 153.1992 158.33808 162.95798 168.02562 170.3254 172.62517 179.19887 183.5135 188.80503 191.1048 196.0198 201.3215 206.6232 209.06545 211.40593 215.71038 220.49309 224.01399 226.35448 231.646 237.07999">Higher-level NLP applications</tspan></text>
</g>
</g>
<g id="layer_1" data-name="P">
<path transform="matrix(1,0,0,-1,0,792)" stroke-width=".84748" stroke-linecap="butt" stroke-linejoin="round" fill="none" stroke="#e0e0e0" d="M51.022 247.79H561.14199V544.14H51.022Z"/>
</g>
</g>
</svg>