<svg xmlns:dc="http://purl.org/dc/elements/1.1/" xmlns:cc="http://creativecommons.org/ns#" xmlns:rdf="http://www.w3.org/1999/02/22-rdf-syntax-ns#" xmlns:svg="http://www.w3.org/2000/svg" xmlns="http://www.w3.org/2000/svg" xml:space="preserve" id="svg2" version="1.1" viewBox="51.24 248.4 697.33 476.84"><metadata id="metadata8"><rdf:RDF><cc:Work rdf:about=""><dc:format>image/svg+xml</dc:format><dc:type rdf:resource="http://purl.org/dc/dcmitype/StillImage"/></cc:Work></rdf:RDF></metadata><defs id="defs6"><clipPath id="clipPath26" clipPathUnits="userSpaceOnUse"><path style="clip-rule:evenodd" id="path24" d="M 51.24,248.4 H 561.12 V 543.6 H 51.24 Z"/></clipPath><clipPath id="clipPath38" clipPathUnits="userSpaceOnUse"><path style="clip-rule:evenodd" id="path36" d="M 51.24,248.4 H 561.12 V 543.6 H 51.24 Z"/></clipPath><clipPath id="clipPath50" clipPathUnits="userSpaceOnUse"><path style="clip-rule:evenodd" id="path48" d="M 51.24,248.4 H 561.12 V 543.6 H 51.24 Z"/></clipPath><clipPath id="clipPath62" clipPathUnits="userSpaceOnUse"><path style="clip-rule:evenodd" id="path60" d="M 51.24,248.4 H 561.12 V 543.6 H 51.24 Z"/></clipPath><clipPath id="clipPath74" clipPathUnits="userSpaceOnUse"><path style="clip-rule:evenodd" id="path72" d="M 51.24,248.4 H 561.12 V 543.6 H 51.24 Z"/></clipPath><clipPath id="clipPath86" clipPathUnits="userSpaceOnUse"><path style="clip-rule:evenodd" id="path84" d="M 51.24,248.4 H 561.12 V 543.6 H 51.24 Z"/></clipPath><clipPath id="clipPath98" clipPathUnits="userSpaceOnUse"><path style="clip-rule:evenodd" id="path96" d="M 51.24,248.4 H 561.12 V 543.6 H 51.24 Z"/></clipPath><clipPath id="clipPath110" clipPathUnits="userSpaceOnUse"><path style="clip-rule:evenodd" id="path108" d="M 51.24,248.4 H 561.12 V 543.6 H 51.24 Z"/></clipPath><clipPath id="clipPath122" clipPathUnits="userSpaceOnUse"><path style="clip-rule:evenodd" id="path120" d="M 51.24,248.4 H 561.12 V 543.6 H 51.24 Z"/></clipPath><clipPath id="clipPath134" clipPathUnits="userSpaceOnUse"><path style="clip-rule:evenodd" id="path132" d="M 51.24,248.4 H 561.12 V 543.6 H 51.24 Z"/></clipPath><clipPath id="clipPath146" clipPathUnits="userSpaceOnUse"><path style="clip-rule:evenodd" id="path144" d="M 51.24,248.4 H 561.12 V 543.6 H 51.24 Z"/></clipPath><clipPath id="clipPath158" clipPathUnits="userSpaceOnUse"><path style="clip-rule:evenodd" id="path156" d="M 51.24,248.4 H 561.12 V 543.6 H 51.24 Z"/></clipPath><clipPath id="clipPath170" clipPathUnits="userSpaceOnUse"><path style="clip-rule:evenodd" id="path168" d="M 51.24,248.4 H 561.12 V 543.6 H 51.24 Z"/></clipPath><clipPath id="clipPath182" clipPathUnits="userSpaceOnUse"><path style="clip-rule:evenodd" id="path180" d="M 51.24,248.4 H 561.12 V 543.6 H 51.24 Z"/></clipPath><clipPath id="clipPath194" clipPathUnits="userSpaceOnUse"><path style="clip-rule:evenodd" id="path192" d="M 51.24,248.4 H 561.12 V 543.6 H 51.24 Z"/></clipPath><clipPath id="clipPath206" clipPathUnits="userSpaceOnUse"><path style="clip-rule:evenodd" id="path204" d="M 51.24,248.4 H 561.12 V 543.6 H 51.24 Z"/></clipPath><clipPath id="clipPath218" clipPathUnits="userSpaceOnUse"><path style="clip-rule:evenodd" id="path216" d="M 51.24,248.4 H 561.12 V 543.6 H 51.24 Z"/></clipPath><clipPath id="clipPath230" clipPathUnits="userSpaceOnUse"><path style="clip-rule:evenodd" id="path228" d="M 51.24,248.4 H 561.12 V 543.6 H 51.24 Z"/></clipPath><clipPath id="clipPath242" clipPathUnits="userSpaceOnUse"><path style="clip-rule:evenodd" id="path240" d="M 51.24,248.4 H 561.12 V 543.6 H 51.24 Z"/></clipPath><clipPath id="clipPath254" clipPathUnits="userSpaceOnUse"><path style="clip-rule:evenodd" id="path252" d="M 51.24,248.4 H 561.12 V 543.6 H 51.24 Z"/></clipPath><clipPath id="clipPath266" clipPathUnits="userSpaceOnUse"><path style="clip-rule:evenodd" id="path264" d="M 51.24,248.4 H 561.12 V 543.6 H 51.24 Z"/></clipPath><clipPath id="clipPath278" clipPathUnits="userSpaceOnUse"><path style="clip-rule:evenodd" id="path276" d="M 51.24,248.4 H 561.12 V 543.6 H 51.24 Z"/></clipPath><clipPath id="clipPath290" clipPathUnits="userSpaceOnUse"><path style="clip-rule:evenodd" id="path288" d="M 51.24,248.4 H 561.12 V 543.6 H 51.24 Z"/></clipPath><clipPath id="clipPath302" clipPathUnits="userSpaceOnUse"><path style="clip-rule:evenodd" id="path300" d="M 51.24,248.4 H 561.12 V 543.6 H 51.24 Z"/></clipPath></defs><g transform="matrix(1.3333333,0,0,-1.3333333,0,1056)" id="g10"><path id="path12" style="fill:#ffffff;fill-opacity:1;fill-rule:evenodd;stroke:none" d="m 51.146,248.45 h 509.9 v 295.2 h -509.9 z"/><path id="path14" style="fill:none;stroke:#d9d9d9;stroke-width:1.0165;stroke-linecap:butt;stroke-linejoin:round;stroke-miterlimit:10;stroke-dasharray:none;stroke-opacity:1" d="m 124.74,334.98 h 421.4 m -421.4,26.51 h 421.4 m -421.4,26.35 h 421.4 m -421.4,26.35 h 421.4 m -421.4,26.35 h 421.4 m -421.4,26.51 h 421.4 m -421.4,26.33 h 421.4"/><path id="path16" style="fill:#4472c4;fill-opacity:1;fill-rule:nonzero;stroke:none" d="m 135.89,386.21 h 10.08 v -77.58 h -10.08 z m 32.36,-20.49 h 10.25 v -57.09 h -10.25 z m 32.37,28.79 h 10.25 v -85.88 h -10.25 z m 32.53,-14.8 h 10.08 v -71.08 h -10.08 z m 32.36,20.98 h 10.25 v -92.06 h -10.25 z m 32.37,-17.89 h 10.25 v -74.17 h -10.25 z m 32.53,33.18 H 340.5 V 308.63 h -10.09 z m 32.37,-20.82 h 10.08 v -86.53 h -10.08 z m 32.36,32.2 h 10.25 V 308.63 h -10.25 z m 32.53,7.16 h 10.09 V 308.63 h -10.09 z m 32.37,48.79 h 10.09 V 308.63 h -10.09 z m 32.37,-17.08 h 10.24 v -157.6 h -10.24 z m 32.36,-80.83 h 10.25 v -76.77 h -10.25 z"/><path id="path18" style="fill:none;stroke:#d9d9d9;stroke-width:1.0165;stroke-linecap:butt;stroke-linejoin:round;stroke-miterlimit:10;stroke-dasharray:none;stroke-opacity:1" d="m 124.74,308.63 h 421.4"/><g id="g20"><g clip-path="url(#clipPath26)" id="g22"><text id="text30" style="font-variant:normal;font-weight:normal;font-size:12.2159996px;font-family:Calibri;-inkscape-font-specification:Calibri;writing-mode:lr-tb;fill:#595959;fill-opacity:1;fill-rule:nonzero;stroke:none" transform="matrix(1,0,0,-1,107.26,305.14)"><tspan id="tspan28" y="0" x="0">0</tspan></text>
</g></g><g id="g32"><g clip-path="url(#clipPath38)" id="g34"><text id="text42" style="font-variant:normal;font-weight:normal;font-size:12.2159996px;font-family:Calibri;-inkscape-font-specification:Calibri;writing-mode:lr-tb;fill:#595959;fill-opacity:1;fill-rule:nonzero;stroke:none" transform="matrix(1,0,0,-1,88.704,331.54)"><tspan id="tspan40" y="0" x="0 6.1920018 12.384004 18.576006">1000</tspan></text>
</g></g><g id="g44"><g clip-path="url(#clipPath50)" id="g46"><text id="text54" style="font-variant:normal;font-weight:normal;font-size:12.19200039px;font-family:Calibri;-inkscape-font-specification:Calibri;writing-mode:lr-tb;fill:#595959;fill-opacity:1;fill-rule:nonzero;stroke:none" transform="matrix(1,0,0,-1,88.704,357.91)"><tspan id="tspan52" y="0" x="0 6.1920438 12.384088 18.576132">2000</tspan></text>
</g></g><g id="g56"><g clip-path="url(#clipPath62)" id="g58"><text id="text66" style="font-variant:normal;font-weight:normal;font-size:12.19200039px;font-family:Calibri;-inkscape-font-specification:Calibri;writing-mode:lr-tb;fill:#595959;fill-opacity:1;fill-rule:nonzero;stroke:none" transform="matrix(1,0,0,-1,88.704,384.31)"><tspan id="tspan64" y="0" x="0 6.1920438 12.384088 18.576132">3000</tspan></text>
</g></g><g id="g68"><g clip-path="url(#clipPath74)" id="g70"><text id="text78" style="font-variant:normal;font-weight:normal;font-size:12.19200039px;font-family:Calibri;-inkscape-font-specification:Calibri;writing-mode:lr-tb;fill:#595959;fill-opacity:1;fill-rule:nonzero;stroke:none" transform="matrix(1,0,0,-1,88.704,410.71)"><tspan id="tspan76" y="0" x="0 6.1920438 12.384088 18.576132">4000</tspan></text>
</g></g><g id="g80"><g clip-path="url(#clipPath86)" id="g82"><text id="text90" style="font-variant:normal;font-weight:normal;font-size:12.19200039px;font-family:Calibri;-inkscape-font-specification:Calibri;writing-mode:lr-tb;fill:#595959;fill-opacity:1;fill-rule:nonzero;stroke:none" transform="matrix(1,0,0,-1,88.704,437.11)"><tspan id="tspan88" y="0" x="0 6.1920438 12.384088 18.576132">5000</tspan></text>
</g></g><g id="g92"><g clip-path="url(#clipPath98)" id="g94"><text id="text102" style="font-variant:normal;font-weight:normal;font-size:12.19200039px;font-family:Calibri;-inkscape-font-specification:Calibri;writing-mode:lr-tb;fill:#595959;fill-opacity:1;fill-rule:nonzero;stroke:none" transform="matrix(1,0,0,-1,88.704,463.51)"><tspan id="tspan100" y="0" x="0 6.1920438 12.384088 18.576132">6000</tspan></text>
</g></g><g id="g104"><g clip-path="url(#clipPath110)" id="g106"><text id="text114" style="font-variant:normal;font-weight:normal;font-size:12.19200039px;font-family:Calibri;-inkscape-font-specification:Calibri;writing-mode:lr-tb;fill:#595959;fill-opacity:1;fill-rule:nonzero;stroke:none" transform="matrix(1,0,0,-1,88.704,489.91)"><tspan id="tspan112" y="0" x="0 6.1920438 12.384088 18.576132">7000</tspan></text>
</g></g><g id="g116"><g clip-path="url(#clipPath122)" id="g118"><text id="text126" style="font-variant:normal;font-weight:normal;font-size:12.2159996px;font-family:Calibri;-inkscape-font-specification:Calibri;writing-mode:lr-tb;fill:#595959;fill-opacity:1;fill-rule:nonzero;stroke:none" transform="matrix(1,0,0,-1,128.59,289.27)"><tspan id="tspan124" y="0" x="0 6.1920018 12.384004 18.576006">2010</tspan></text>
</g></g><g id="g128"><g clip-path="url(#clipPath134)" id="g130"><text id="text138" style="font-variant:normal;font-weight:normal;font-size:12.2159996px;font-family:Calibri;-inkscape-font-specification:Calibri;writing-mode:lr-tb;fill:#595959;fill-opacity:1;fill-rule:nonzero;stroke:none" transform="matrix(1,0,0,-1,161.02,289.27)"><tspan id="tspan136" y="0" x="0 6.1920018 12.384004 18.576006">2011</tspan></text>
</g></g><g id="g140"><g clip-path="url(#clipPath146)" id="g142"><text id="text150" style="font-variant:normal;font-weight:normal;font-size:12.2159996px;font-family:Calibri;-inkscape-font-specification:Calibri;writing-mode:lr-tb;fill:#595959;fill-opacity:1;fill-rule:nonzero;stroke:none" transform="matrix(1,0,0,-1,193.44,289.27)"><tspan id="tspan148" y="0" x="0 6.1920018 12.384004 18.576006">2012</tspan></text>
</g></g><g id="g152"><g clip-path="url(#clipPath158)" id="g154"><text id="text162" style="font-variant:normal;font-weight:normal;font-size:12.2159996px;font-family:Calibri;-inkscape-font-specification:Calibri;writing-mode:lr-tb;fill:#595959;fill-opacity:1;fill-rule:nonzero;stroke:none" transform="matrix(1,0,0,-1,225.86,289.27)"><tspan id="tspan160" y="0" x="0 6.1920018 12.384004 18.576006">2013</tspan></text>
</g></g><g id="g164"><g clip-path="url(#clipPath170)" id="g166"><text id="text174" style="font-variant:normal;font-weight:normal;font-size:12.2159996px;font-family:Calibri;-inkscape-font-specification:Calibri;writing-mode:lr-tb;fill:#595959;fill-opacity:1;fill-rule:nonzero;stroke:none" transform="matrix(1,0,0,-1,258.29,289.27)"><tspan id="tspan172" y="0" x="0 6.1920018 12.384004 18.576006">2014</tspan></text>
</g></g><g id="g176"><g clip-path="url(#clipPath182)" id="g178"><text id="text186" style="font-variant:normal;font-weight:normal;font-size:12.2159996px;font-family:Calibri;-inkscape-font-specification:Calibri;writing-mode:lr-tb;fill:#595959;fill-opacity:1;fill-rule:nonzero;stroke:none" transform="matrix(1,0,0,-1,290.71,289.27)"><tspan id="tspan184" y="0" x="0 6.1920018 12.384004 18.576006">2015</tspan></text>
</g></g><g id="g188"><g clip-path="url(#clipPath194)" id="g190"><text id="text198" style="font-variant:normal;font-weight:normal;font-size:12.2159996px;font-family:Calibri;-inkscape-font-specification:Calibri;writing-mode:lr-tb;fill:#595959;fill-opacity:1;fill-rule:nonzero;stroke:none" transform="matrix(1,0,0,-1,323.14,289.27)"><tspan id="tspan196" y="0" x="0 6.1920018 12.384004 18.576006">2016</tspan></text>
</g></g><g id="g200"><g clip-path="url(#clipPath206)" id="g202"><text id="text210" style="font-variant:normal;font-weight:normal;font-size:12.2159996px;font-family:Calibri;-inkscape-font-specification:Calibri;writing-mode:lr-tb;fill:#595959;fill-opacity:1;fill-rule:nonzero;stroke:none" transform="matrix(1,0,0,-1,355.56,289.27)"><tspan id="tspan208" y="0" x="0 6.1920018 12.384004 18.576006">2017</tspan></text>
</g></g><g id="g212"><g clip-path="url(#clipPath218)" id="g214"><text id="text222" style="font-variant:normal;font-weight:normal;font-size:12.2159996px;font-family:Calibri;-inkscape-font-specification:Calibri;writing-mode:lr-tb;fill:#595959;fill-opacity:1;fill-rule:nonzero;stroke:none" transform="matrix(1,0,0,-1,387.98,289.27)"><tspan id="tspan220" y="0" x="0 6.1680121 12.336024 18.504036">2018</tspan></text>
</g></g><g id="g224"><g clip-path="url(#clipPath230)" id="g226"><text id="text234" style="font-variant:normal;font-weight:normal;font-size:12.2159996px;font-family:Calibri;-inkscape-font-specification:Calibri;writing-mode:lr-tb;fill:#595959;fill-opacity:1;fill-rule:nonzero;stroke:none" transform="matrix(1,0,0,-1,420.41,289.27)"><tspan id="tspan232" y="0" x="0 6.1680121 12.336024 18.504036">2019</tspan></text>
</g></g><g id="g236"><g clip-path="url(#clipPath242)" id="g238"><text id="text246" style="font-variant:normal;font-weight:normal;font-size:12.2159996px;font-family:Calibri;-inkscape-font-specification:Calibri;writing-mode:lr-tb;fill:#595959;fill-opacity:1;fill-rule:nonzero;stroke:none" transform="matrix(1,0,0,-1,452.83,289.27)"><tspan id="tspan244" y="0" x="0 6.1680121 12.336024 18.504036">2020</tspan></text>
</g></g><g id="g248"><g clip-path="url(#clipPath254)" id="g250"><text id="text258" style="font-variant:normal;font-weight:normal;font-size:12.2159996px;font-family:Calibri;-inkscape-font-specification:Calibri;writing-mode:lr-tb;fill:#595959;fill-opacity:1;fill-rule:nonzero;stroke:none" transform="matrix(1,0,0,-1,485.26,289.27)"><tspan id="tspan256" y="0" x="0 6.1680121 12.336024 18.504036">2021</tspan></text>
</g></g><g id="g260"><g clip-path="url(#clipPath266)" id="g262"><text id="text270" style="font-variant:normal;font-weight:normal;font-size:12.2159996px;font-family:Calibri;-inkscape-font-specification:Calibri;writing-mode:lr-tb;fill:#595959;fill-opacity:1;fill-rule:nonzero;stroke:none" transform="matrix(1,0,0,-1,517.68,289.27)"><tspan id="tspan268" y="0" x="0 6.1680121 12.336024 18.504036">2022</tspan></text>
</g></g><g id="g272"><g clip-path="url(#clipPath278)" id="g274"><text id="text282" style="font-variant:normal;font-weight:normal;font-size:13.48799992px;font-family:Calibri;-inkscape-font-specification:Calibri;writing-mode:lr-tb;fill:#595959;fill-opacity:1;fill-rule:nonzero;stroke:none" transform="matrix(-4.4e-8,1,1,4.4e-8,80.952,349.87)"><tspan id="tspan280" y="0" x="0 8.7672005 15.902352 26.625313 33.760464 40.437023 45.144337 48.246574 55.381729 59.441616 62.530369 69.018097 73.72541 78.297836 81.400078 87.105507 90.207741 96.843842">Number of articles</tspan></text>
</g></g><g id="g284"><g clip-path="url(#clipPath290)" id="g286"><text id="text294" style="font-variant:normal;font-weight:normal;font-size:13.51200008px;font-family:Calibri;-inkscape-font-specification:Calibri;writing-mode:lr-tb;fill:#595959;fill-opacity:1;fill-rule:nonzero;stroke:none" transform="matrix(1,0,0,-1,323.47,269.02)"><tspan id="tspan292" y="0" x="0 6.1479602 12.822888 19.295135">year</tspan></text>
</g></g><g id="g296"><g clip-path="url(#clipPath302)" id="g298"><text id="text306" style="font-variant:normal;font-weight:normal;font-size:19.03199959px;font-family:Calibri;-inkscape-font-specification:Calibri;writing-mode:lr-tb;fill:#595959;fill-opacity:1;fill-rule:nonzero;stroke:none" transform="matrix(1,0,0,-1,200.26,515.4)"><tspan id="tspan304" y="0" x="0 12.332736 22.248407 37.359818 47.27549 56.753426 63.395592 67.601662 77.631531 83.512413 87.737518 96.853851 103.49602 109.87173 114.2491 122.20448 126.58183 136.05977 143.50128 147.5551 157.47076 166.9487 173.59087 177.9492 186.39941 195.87735 204.93657">Number of articles per year</tspan></text>
</g></g><path id="path308" style="fill:none;stroke:#d9d9d9;stroke-width:1.0165;stroke-linecap:butt;stroke-linejoin:round;stroke-miterlimit:10;stroke-dasharray:none;stroke-opacity:1" d="m 51.146,248.45 h 509.9 v 295.2 h -509.9 z"/></g></svg>